<svg width="120" height="44" viewBox="0 0 120 44" fill="none" xmlns="http://www.w3.org/2000/svg">
<g id="Logo SGP" clip-path="url(#clip0_1791_3770)">
<path id="Vector" d="M119.574 9.0906C119.574 9.0906 118.028 18.2248 107.271 18.2248H88.9363L85.7543 29.9145C85.7098 30.1994 85.5597 30.4573 85.3336 30.6373C85.1075 30.8174 84.8218 30.9065 84.533 30.887H79.7406C79.0535 30.887 78.7959 30.5628 78.9676 29.9145L83.6286 12.403H107.377C110.211 12.403 112.411 10.7173 112.491 8.47481C112.507 7.97314 112.366 7.47899 112.087 7.06107C111.656 6.44784 110.744 6.32211 109.368 6.30928H56.629C55.6446 6.29293 54.6617 6.38936 53.6995 6.59666C52.9538 6.76194 52.2559 7.09452 51.6588 7.56909C51.062 8.07233 50.579 8.69584 50.2417 9.39849C49.7949 10.3298 49.4494 11.3061 49.2111 12.3107L47.6008 18.6636C47.3346 19.621 47.1816 20.6061 47.1447 21.5988C47.1044 22.2519 47.2741 22.9008 47.6291 23.4513C48.014 23.9455 48.5613 24.2889 49.175 24.4212C50.0871 24.6361 51.0233 24.7327 51.9603 24.7086H66.5822C67.2466 24.7434 67.9004 24.5312 68.4167 24.1133C68.8727 23.7156 69.8106 20.1081 70.0631 19.1074L70.3053 18.4455C70.4006 18.0657 70.2718 17.8733 69.9188 17.8733H56.9382C56.2889 17.8733 56.0501 17.5312 56.2219 16.847L57.0619 13.5397C57.2319 12.8623 57.6441 12.5134 58.2934 12.5134H76.7698C77.6536 12.5134 77.986 12.9547 77.7618 13.8373L75.2368 24.1287C74.6098 26.5987 73.6952 28.3409 72.4928 29.3552C71.2904 30.3695 69.8029 30.8776 68.0302 30.8793H50.1309C47.8876 30.8793 46.0351 30.6732 44.5733 30.2609C43.1116 29.8487 42.0037 29.179 41.2496 28.2519C40.4938 27.3248 40.0755 26.1189 39.9948 24.6341C39.9141 23.1494 40.1425 21.3482 40.6802 19.2306L42.6048 11.641C43.0506 9.76237 43.7437 7.95063 44.6661 6.25284L44.7434 6.12199H14.9894C14.1306 6.12199 13.4693 6.34264 13.0055 6.78396C12.5084 7.28003 12.165 7.90792 12.0161 8.59284L11.6399 10.1041C11.2225 11.7547 11.7816 12.5784 13.3173 12.5749H29.9308C32.5074 12.5749 34.2766 13.2292 35.2385 14.5378C36.2004 15.8463 36.3722 17.7219 35.7538 20.1645L34.8572 23.6951C34.381 25.7337 33.2492 27.5618 31.6339 28.901C30.0262 30.225 27.879 30.887 25.1926 30.887H0.640661C-0.0361117 30.887 -0.293766 30.5628 -0.132303 29.9145L0.929233 25.7246C0.979742 25.4343 1.13768 25.1734 1.37188 24.9934C1.60608 24.8134 1.89952 24.7273 2.19432 24.7522H25.4554C26.3142 24.7522 26.9755 24.5315 27.4393 24.0902C27.9368 23.5945 28.2804 22.9664 28.4287 22.2813L28.8899 20.4724C29.3073 18.8252 28.7473 18.0016 27.21 18.0016H10.6093C8.03277 18.0016 6.2644 17.3473 5.30421 16.0388C4.34402 14.7302 4.17225 12.8555 4.7889 10.4145L5.58763 7.19448C6.06263 5.15585 7.19248 3.32716 8.80573 1.98594C10.4118 0.661989 12.5589 9.74889e-06 15.2471 9.74889e-06H112.898C112.996 -0.000378302 113.094 0.0108196 113.189 0.0333663C115.962 0.187314 117.831 0.941657 118.796 2.29639C119.878 3.8256 120.043 6.00396 119.574 9.0906ZM9.59416 37.7505H8.68979C8.58112 37.7494 8.47255 37.7571 8.36515 37.7735C8.27448 37.7918 8.18744 37.8247 8.10749 37.871C8.02152 37.9251 7.94274 37.9898 7.87302 38.0635C7.77973 38.1661 7.69364 38.275 7.61537 38.3893L4.78117 42.4253C4.76657 42.449 4.7461 42.4685 4.72173 42.482C4.69736 42.4954 4.66991 42.5024 4.64204 42.5023H4.54155C4.53004 42.5037 4.51835 42.5029 4.50717 42.4998C4.49599 42.4967 4.48554 42.4914 4.47643 42.4842C4.46732 42.477 4.45973 42.4681 4.4541 42.458C4.44847 42.4479 4.44492 42.4368 4.44364 42.4253L3.77374 38.3893C3.75912 38.2784 3.73323 38.1692 3.69645 38.0635C3.66747 37.9905 3.62259 37.9247 3.56504 37.871C3.50482 37.8216 3.43304 37.788 3.35634 37.7735C3.25243 37.7568 3.14726 37.7491 3.042 37.7505H2.10672C1.87184 37.7289 1.63783 37.7998 1.45485 37.948C1.28538 38.1406 1.16986 38.3742 1.1199 38.6254L-0.16837 43.4516C-0.201865 43.5774 -0.152912 43.6389 -0.0240844 43.6389H0.836481C0.892219 43.6423 0.947224 43.625 0.990965 43.5904C1.03471 43.5559 1.0641 43.5064 1.07352 43.4516L2.25358 39.0616C2.26904 39.0051 2.29996 38.9769 2.34376 38.9769H2.42105C2.47774 38.9769 2.50866 39 2.51123 39.0462L3.20433 42.8128C3.22591 42.9435 3.26132 43.0717 3.30997 43.1951C3.34573 43.2896 3.39904 43.3767 3.46713 43.4516C3.53288 43.521 3.61675 43.5708 3.70933 43.5953C3.82516 43.6266 3.94489 43.6413 4.06489 43.6389H4.46941C4.59699 43.6402 4.72423 43.6255 4.84816 43.5953C4.96161 43.5668 5.06896 43.5181 5.16507 43.4516C5.27397 43.3774 5.37421 43.2914 5.46395 43.1951C5.57577 43.0749 5.67908 42.9472 5.77314 42.8128L8.49397 39.0462C8.50643 39.0241 8.52486 39.0058 8.54717 38.9936C8.56948 38.9814 8.59478 38.9756 8.62022 38.9769H8.69751C8.74132 38.9769 8.75678 39.0051 8.74132 39.0616L7.56127 43.4516C7.52777 43.5774 7.56126 43.6389 7.69524 43.6389H8.54808C8.60497 43.6437 8.66159 43.6271 8.70686 43.5924C8.75212 43.5578 8.78279 43.5076 8.79285 43.4516L10.0811 38.6254C10.1647 38.4089 10.1756 38.1712 10.112 37.948C10.0657 37.8146 9.88531 37.7505 9.59416 37.7505ZM54.1194 37.9352L52.6353 43.4516C52.6265 43.5062 52.5976 43.5556 52.5543 43.5902C52.511 43.6248 52.4563 43.6422 52.4009 43.6389H51.4862C51.3574 43.6389 51.311 43.5774 51.3419 43.4516L52.8286 37.9352C52.8386 37.8799 52.869 37.8304 52.9138 37.7962C52.9586 37.762 53.0146 37.7457 53.0708 37.7505H53.9829C54.1091 37.7505 54.1529 37.812 54.1194 37.9352ZM68.4347 42.628L68.2131 43.4516C68.2037 43.5064 68.1743 43.5559 68.1306 43.5904C68.0868 43.625 68.0318 43.6423 67.9761 43.6389H64.5055C64.1488 43.6464 63.7927 43.6068 63.4465 43.5209C63.2021 43.4618 62.9823 43.3281 62.8178 43.1386C62.6702 42.9386 62.5907 42.6967 62.5911 42.4484C62.5887 42.101 62.6382 41.7551 62.738 41.4221L63.6861 37.9352C63.6973 37.88 63.7283 37.8307 63.7734 37.7967C63.8185 37.7627 63.8745 37.7462 63.9309 37.7505H64.843C64.9667 37.7505 65.0131 37.812 64.9796 37.9352L64.0752 41.2912C64.0231 41.4737 63.9912 41.6613 63.9799 41.8506C63.9704 41.9749 64.0011 42.099 64.0675 42.2047C64.1403 42.2978 64.2431 42.363 64.3586 42.3894C64.5325 42.4296 64.7109 42.4477 64.8894 42.4433H68.2982C68.4218 42.4433 68.4682 42.5049 68.4347 42.628ZM84.4093 40.3188L84.2315 40.9834C84.2215 41.0377 84.1919 41.0865 84.1482 41.1205C84.1045 41.1546 84.0498 41.1715 83.9945 41.1681H79.2304L79.1918 41.3118C79.14 41.4918 79.1072 41.6766 79.0939 41.8634C79.0815 41.9871 79.1124 42.1113 79.1815 42.2149C79.2562 42.3089 79.3606 42.3749 79.4778 42.4022C79.6517 42.4426 79.83 42.4607 80.0086 42.4561H83.6982C83.8296 42.4561 83.876 42.5177 83.8425 42.6409L83.6286 43.4388C83.6185 43.4948 83.5879 43.545 83.5426 43.5796C83.4973 43.6143 83.4407 43.6308 83.3838 43.6261H79.6607C79.304 43.6336 78.948 43.5939 78.6018 43.5081C78.3578 43.4496 78.1387 43.3157 77.9757 43.1258C77.8261 42.9266 77.7456 42.6843 77.7464 42.4356C77.7439 42.0881 77.7934 41.7422 77.8932 41.4093L78.2333 40.1264H84.2727C84.4067 40.1469 84.4505 40.2085 84.417 40.3316L84.4093 40.3188ZM85.105 37.9224L84.8911 38.7203C84.8798 38.778 84.8469 38.8292 84.799 38.8635C84.7511 38.8978 84.6919 38.9127 84.6335 38.9051H78.7074C78.8532 38.648 79.0506 38.4236 79.2871 38.2457C79.537 38.063 79.8207 37.9313 80.1219 37.8582C80.4899 37.7717 80.8673 37.7311 81.2453 37.7376H84.9684C85.0998 37.7505 85.1462 37.812 85.1127 37.9352L85.105 37.9224ZM25.8599 37.8582C25.5134 37.7689 25.1561 37.7282 24.7984 37.7376H22.2038C21.8266 37.7311 21.4501 37.7717 21.083 37.8582C20.7818 37.9273 20.4985 38.0584 20.2514 38.2432C20.0042 38.4279 19.7986 38.6621 19.6478 38.9307C19.4691 39.2543 19.3323 39.5991 19.2407 39.957L18.8543 41.417C18.7552 41.75 18.7065 42.0959 18.71 42.4433C18.7083 42.6918 18.7879 42.934 18.9367 43.1335C19.1012 43.323 19.321 43.4566 19.5654 43.5158C19.9107 43.6018 20.2659 43.6415 20.6218 43.6338H23.2344C23.613 43.6385 23.9909 43.5989 24.3603 43.5158C24.663 43.4449 24.9485 43.315 25.2003 43.1335C25.4436 42.9459 25.646 42.7111 25.7955 42.4433C25.9711 42.1188 26.1061 41.7742 26.1974 41.417L26.589 39.9699C26.6871 39.6365 26.7374 39.291 26.7385 38.9435C26.7398 38.6967 26.6602 38.4562 26.5118 38.2585C26.3437 38.0646 26.1181 37.929 25.8676 37.871L25.8599 37.8582ZM25.2492 40.0494L24.9169 41.3195C24.8693 41.5098 24.802 41.6947 24.7159 41.8711C24.6495 42.0068 24.5546 42.1266 24.4376 42.2226C24.3226 42.3131 24.1888 42.3771 24.046 42.4099C23.8623 42.449 23.6747 42.4671 23.4869 42.4638H20.9773C20.7988 42.4683 20.6205 42.4502 20.4466 42.4099C20.3307 42.3828 20.2278 42.3167 20.1554 42.2226C20.0888 42.118 20.058 41.9946 20.0678 41.8711C20.0788 41.6843 20.1108 41.4992 20.1631 41.3195L20.5007 40.0571C20.5491 39.8667 20.6173 39.6818 20.7042 39.5055C20.772 39.3707 20.8667 39.251 20.9825 39.1539C21.0971 39.0632 21.2311 39 21.3741 38.9692C21.5575 38.9279 21.7453 38.9089 21.9332 38.9128H24.4428C24.6206 38.9077 24.7983 38.9267 24.971 38.9692C25.0874 38.9951 25.1912 39.0604 25.2647 39.1539C25.331 39.2587 25.3609 39.3822 25.3497 39.5055C25.3415 39.6941 25.3103 39.881 25.257 40.0622L25.2492 40.0494ZM42.9243 38.0814C42.7414 37.8505 42.3575 37.7376 41.7778 37.7376H36.921C36.8447 37.7322 36.7693 37.7557 36.7096 37.8032C36.6499 37.8508 36.6104 37.9189 36.5989 37.9942L36.3542 38.9025H41.2109C41.37 38.8832 41.5303 38.9275 41.6567 39.0257C41.6973 39.0798 41.7227 39.1438 41.7304 39.2109C41.7381 39.2781 41.7278 39.3461 41.7005 39.408L41.6258 39.6928C41.5897 39.8439 41.4977 39.9758 41.3681 40.0622C41.1819 40.162 40.9709 40.2066 40.76 40.1905H36.0089L35.7512 41.1065H40.5075C40.6991 41.0818 40.8931 41.1294 41.0512 41.2399C41.0921 41.2964 41.1181 41.3622 41.1266 41.4312C41.1352 41.5003 41.1261 41.5704 41.1001 41.6351L41.0125 41.9558C40.9774 42.1135 40.8858 42.253 40.7549 42.3484C40.5988 42.4381 40.4195 42.48 40.2396 42.4689H35.3957L35.1509 43.3772C35.1045 43.5483 35.1664 43.6338 35.3364 43.6338H40.353C40.6024 43.6378 40.851 43.6031 41.0898 43.5312C41.287 43.4712 41.4701 43.3727 41.6283 43.2412C41.7806 43.1127 41.9073 42.957 42.0019 42.782C42.1055 42.5903 42.186 42.387 42.2416 42.1764L42.373 41.6889C42.5069 41.1912 42.4099 40.8294 42.0818 40.6036C42.2863 40.4923 42.4654 40.34 42.6077 40.1563C42.7501 39.9726 42.8526 39.7614 42.9089 39.5362L43.0171 39.1334C43.1433 38.6716 43.115 38.3252 42.9321 38.0943L42.9243 38.0814Z" fill="#76AA94"/>
</g>
<defs>
<clipPath id="clip0_1791_3770">
<rect width="120" height="43.6364" fill="white"/>
</clipPath>
</defs>
</svg>
