<svg width="24" height="24" viewBox="0 0 24 24" fill="none" xmlns="http://www.w3.org/2000/svg">
<path fill-rule="evenodd" clip-rule="evenodd" d="M13.1298 8.70711C12.9423 8.89464 12.6879 9 12.4227 9C12.1575 9 11.9031 8.89464 11.7156 8.70711C11.528 8.51957 11.4227 8.26522 11.4227 8L11.4227 5C11.4243 3.67441 11.9516 2.40356 12.8889 1.46622C13.8262 0.528884 15.0971 0.00159187 16.4227 3.16112e-06L18.8987 3.37758e-06C20.2243 0.00159231 21.4951 0.528885 22.4325 1.46622C23.3698 2.40356 23.8971 3.67441 23.8987 5L23.8987 19C23.8971 20.3256 23.3698 21.5964 22.4325 22.5338C21.4951 23.4711 20.2243 23.9984 18.8987 24L16.4227 24C15.0971 23.9984 13.8262 23.4711 12.8889 22.5338C11.9516 21.5964 11.4243 20.3256 11.4227 19L11.4227 16C11.4227 15.7348 11.528 15.4804 11.7156 15.2929C11.9031 15.1054 12.1575 15 12.4227 15C12.6879 15 12.9423 15.1054 13.1298 15.2929C13.3173 15.4804 13.4227 15.7348 13.4227 16L13.4227 19C13.4227 19.7956 13.7388 20.5587 14.3014 21.1213C14.864 21.6839 15.627 22 16.4227 22L18.8987 22C19.6943 22 20.4574 21.6839 21.02 21.1213C21.5826 20.5587 21.8987 19.7956 21.8987 19L21.8987 5C21.8987 4.20435 21.5826 3.44129 21.02 2.87868C20.4574 2.31607 19.6943 2 18.8987 2L16.4227 2C15.627 2 14.864 2.31607 14.3014 2.87868C13.7388 3.44129 13.4227 4.20435 13.4227 5L13.4227 8C13.4227 8.26522 13.3173 8.51957 13.1298 8.70711ZM5.61762 18.707L1.03162 14.121C0.469474 13.5582 0.153888 12.7951 0.154262 11.9996C0.154638 11.2041 0.470945 10.4413 1.03362 9.87901L5.61962 5.29301C5.71187 5.1975 5.82221 5.12132 5.94422 5.06891C6.06622 5.0165 6.19744 4.98891 6.33022 4.98776C6.463 4.98661 6.59468 5.01191 6.71758 5.06219C6.84047 5.11247 6.95212 5.18672 7.04602 5.28062C7.13991 5.37451 7.21416 5.48616 7.26444 5.60906C7.31473 5.73196 7.34003 5.86363 7.33887 5.99641C7.33772 6.12919 7.31013 6.26041 7.25772 6.38242C7.20532 6.50442 7.12913 6.61477 7.03362 6.70701L2.71062 11.03L17.8986 11C18.1638 11 18.4182 11.1054 18.6057 11.2929C18.7933 11.4804 18.8986 11.7348 18.8986 12C18.8986 12.2652 18.7933 12.5196 18.6057 12.7071C18.4182 12.8947 18.1638 13 17.8986 13L2.76862 13.03L7.03162 17.293C7.12713 17.3853 7.20331 17.4956 7.25572 17.6176C7.30813 17.7396 7.33572 17.8708 7.33687 18.0036C7.33802 18.1364 7.31272 18.2681 7.26244 18.391C7.21216 18.5139 7.13791 18.6255 7.04402 18.7194C6.95012 18.8133 6.83847 18.8876 6.71557 18.9378C6.59268 18.9881 6.461 19.0134 6.32822 19.0123C6.19544 19.0111 6.06422 18.9835 5.94222 18.9311C5.82021 18.8787 5.70987 18.8025 5.61762 18.707Z" fill="#4E4F4F"/>
</svg>
